<svg viewBox="0 0 3328 1024" xmlns="http://www.w3.org/2000/svg" width="416" height="128">
  <path
    d="M2176 768c-25.6-6.4-57.6-12.8-83.2-25.6-57.6-32-89.6-76.8-115.2-134.4-6.4-19.2 0-25.6 19.2-25.6h134.4c25.6 0 38.4-6.4 51.2-32 6.4-12.8 6.4-25.6-12.8-25.6h-179.2c-19.2 0-25.6-6.4-19.2-19.2v-44.8c0-32 6.4-38.4 38.4-38.4h121.6c19.2 0 32-6.4 44.8-25.6 6.4-6.4 6.4-19.2 6.4-25.6-6.4-6.4-12.8-6.4-19.2-6.4H1728c-19.2 0-19.2 0-19.2 19.2 0 12.8-6.4 38.4 25.6 32h140.8c64 0 51.2 0 57.6 51.2 0 44.8 0 44.8-44.8 51.2h-153.6c-19.2 0-32 6.4-32 25.6 0 19.2 0 32 25.6 32h172.8c19.2 0 25.6 6.4 19.2 25.6-25.6 96-108.8 153.6-192 166.4-32 6.4-19.2 32-19.2 38.4 6.4 19.2 12.8 12.8 19.2 12.8 96-12.8 166.4-57.6 217.6-140.8 6.4-6.4 6.4-12.8 12.8-12.8s12.8 6.4 12.8 12.8c44.8 83.2 121.6 121.6 211.2 140.8 6.4 0 19.2 6.4 25.6-12.8-12.8-12.8-6.4-32-32-38.4zM3315.2 742.4c-12.8-38.4-32-76.8-51.2-115.2-6.4-6.4-6.4-12.8-19.2-12.8h-38.4c0 12.8 6.4 19.2 6.4 32 12.8 25.6 25.6 57.6 38.4 83.2 12.8 32 6.4 38.4-25.6 38.4h-307.2c-32 0-38.4-12.8-25.6-38.4 25.6-51.2 57.6-102.4 83.2-153.6 6.4-19.2 19.2-19.2 38.4-19.2h256c25.6 0 38.4-6.4 51.2-32 6.4-12.8 6.4-19.2-12.8-19.2h-460.8c-19.2 0-19.2 12.8-19.2 25.6s0 25.6 19.2 25.6h89.6c-32 64-64 121.6-96 185.6-19.2 38.4 0 76.8 44.8 76.8h384c38.4 0 64-32 44.8-76.8zM2291.2 512c-19.2 0-25.6 6.4-25.6 25.6v64c0 44.8 12.8 51.2 51.2 51.2h384c25.6 0 38.4-12.8 38.4-38.4V537.6c0-19.2-6.4-19.2-19.2-19.2h-217.6C2432 512 2361.6 512 2291.2 512z m384 108.8h-128c-6.4 0-12.8 0-12.8-12.8 0-6.4 6.4-12.8 12.8-12.8h128c6.4 0 12.8 0 12.8 6.4 0 12.8-6.4 19.2-12.8 19.2z m-128-70.4h128c6.4 0 12.8 0 12.8 12.8s-6.4 12.8-12.8 12.8h-128c-6.4 0-12.8 0-12.8-12.8s6.4-12.8 12.8-12.8z m-204.8 0h121.6c6.4 0 19.2 0 19.2 6.4 0 12.8-6.4 12.8-19.2 12.8h-128c-6.4 0-12.8 0-12.8-12.8 6.4-6.4 12.8-6.4 19.2-6.4z m128 70.4h-134.4c-6.4 0-12.8 0-12.8-12.8 0-6.4 6.4-12.8 12.8-12.8h128c6.4 0 12.8 0 12.8 12.8 6.4 6.4 0 12.8-6.4 12.8z"
    fill="#4784B9"></path>
  <path
    d="M2739.2 761.6c12.8 0 19.2-6.4 19.2-19.2 0-12.8-6.4-19.2-19.2-19.2h-76.8c-12.8 0-25.6 6.4-25.6-6.4 0-19.2 19.2-12.8 25.6-12.8h76.8c12.8 0 12.8-6.4 12.8-19.2 0-6.4 0-12.8-12.8-19.2-38.4 0-83.2 6.4-121.6-12.8-19.2-6.4-38.4 12.8-57.6 12.8-51.2-6.4-96 6.4-147.2-12.8-32-12.8-57.6 12.8-89.6 12.8h-44.8c-12.8 0-19.2 6.4-19.2 19.2 0 12.8 6.4 12.8 19.2 12.8h70.4c32 0 25.6-6.4 25.6 12.8 0 19.2-19.2 12.8-25.6 12.8h-70.4c-12.8 0-19.2 6.4-19.2 19.2 0 12.8 6.4 12.8 19.2 12.8h96c-19.2 12.8-32 12.8-44.8 12.8h-57.6c-19.2 0-19.2 6.4-19.2 19.2 0 12.8 6.4 19.2 19.2 19.2 32 0 64 0 96-6.4 19.2-6.4 44.8-12.8 51.2-38.4 6.4-6.4 6.4-6.4 12.8-6.4h121.6c6.4 0 12.8 0 19.2 6.4 6.4 25.6 25.6 32 51.2 38.4 32 6.4 64 12.8 96 12.8 19.2 0 19.2-6.4 19.2-25.6 0-19.2-6.4-19.2-19.2-19.2h-57.6c-12.8 0-25.6 0-38.4-12.8 51.2 6.4 83.2 6.4 115.2 6.4z m-166.4-32h-128c-6.4 0-12.8 0-12.8-12.8 0-6.4 6.4-12.8 12.8-12.8h128c6.4 0 12.8 0 12.8 12.8s-6.4 12.8-12.8 12.8zM2860.8 409.6h390.4c32 0 32 0 44.8-12.8 12.8-6.4 19.2-25.6 12.8-38.4 0-12.8-19.2-6.4-25.6-6.4h-422.4c-19.2 0-19.2 12.8-19.2 25.6-6.4 25.6 0 32 19.2 32zM2259.2 480c0 12.8 0 19.2 12.8 19.2h179.2c32 0 44.8-12.8 44.8-44.8v-51.2c0-32-12.8-51.2-44.8-51.2h-166.4c-12.8 0-25.6 0-25.6 19.2s12.8 19.2 25.6 19.2c44.8 0 96 0 140.8 6.4 19.2 0 19.2 12.8 19.2 25.6s6.4 32-19.2 32h-153.6c-12.8 6.4-12.8 19.2-12.8 25.6zM2515.2 480c0 12.8 6.4 19.2 19.2 19.2h179.2c32 0 44.8-12.8 44.8-44.8v-51.2c0-38.4-12.8-51.2-51.2-51.2h-166.4c-12.8 0-25.6-6.4-25.6 12.8 0 12.8 0 25.6 19.2 25.6h140.8c25.6 0 25.6 19.2 25.6 32 0 19.2 0 32-25.6 32h-147.2c-6.4 6.4-12.8 12.8-12.8 25.6z"
    fill="#4784B9"></path>
  <path
    d="M2284.8 409.6c-12.8 0-19.2 0-19.2 19.2 0 12.8 6.4 19.2 19.2 19.2h96c12.8 0 19.2-6.4 25.6-19.2 6.4-12.8 6.4-12.8-12.8-12.8h-57.6c-12.8-6.4-32-6.4-51.2-6.4zM2656 441.6s6.4 0 6.4-6.4c6.4-6.4 12.8-12.8 6.4-19.2 0-6.4-12.8-6.4-19.2-6.4H2540.8c-6.4 0-12.8 6.4-12.8 12.8s0 19.2 6.4 19.2c38.4 6.4 83.2 6.4 121.6 0z"
    fill="#4784B9"></path>
  <path
    d="M1331.2 332.8c-12.8-108.8-108.8-185.6-217.6-185.6-25.6 0-57.6 6.4-83.2 12.8C960 76.8 851.2 25.6 742.4 25.6 595.2 25.6 467.2 108.8 403.2 236.8H384C185.6 236.8 25.6 390.4 19.2 588.8s153.6 358.4 352 364.8h467.2c38.4 0 70.4-32 70.4-70.4 0-38.4-32-70.4-70.4-70.4H403.2h-6.4c-115.2 0-211.2-89.6-211.2-204.8 0-108.8 83.2-198.4 192-211.2 19.2 0 44.8 0 64 6.4H448l44.8 12.8c12.8-128 121.6-230.4 256-230.4 89.6 0 172.8 51.2 217.6 128 6.4 12.8 6.4 19.2 12.8 32l12.8-12.8c32-25.6 76.8-32 115.2-25.6v-6.4c64 6.4 108.8 57.6 108.8 121.6 0 19.2-6.4 38.4-12.8 57.6 19.2 12.8 32 25.6 57.6 32 12.8-12.8 25.6-19.2 32-32 102.4 6.4 179.2 96 172.8 198.4-6.4 96-89.6 172.8-192 172.8-76.8 0-153.6-51.2-179.2-128h76.8c12.8 0 19.2-6.4 19.2-19.2 0-6.4 0-6.4-6.4-12.8l-153.6-204.8c-6.4-6.4-19.2-12.8-32-6.4l-6.4 6.4-153.6 204.8c-6.4 6.4-6.4 25.6 6.4 32 6.4 0 6.4 6.4 12.8 6.4h89.6c32 179.2 204.8 300.8 384 268.8s300.8-204.8 268.8-384c-25.6-153.6-134.4-256-268.8-281.6z"
    fill="#F3A22F"></path>
</svg>
