<svg viewBox="0 0 1024 1024" xmlns="http://www.w3.org/2000/svg" width="128" height="128">
  <path
    d="M515.584 128c143.402667 0 264.832 89.6 305.493333 213.12a224.597333 224.597333 0 0 0-45.653333-0.64c-18.602667 1.706667-36.949333 5.546667-54.656 11.349333-33.493333-75.52-112.725333-128.554667-205.184-128.554666-110.208 0-201.642667 75.392-219.136 174.336a315.136 315.136 0 0 0-98.304-4.138667C218.026667 243.797333 352.597333 128 515.584 128z"
    fill="#006DFE"></path>
  <path
    d="M236.928 391.765333c59.818667 0 114.517333 21.589333 156.245333 57.130667 17.706667 15.018667 49.706667 42.410667 96.042667 82.090667l-8.106667-6.954667-67.669333 65.109333-59.776-58.197333c-37.632-36.608-72.661333-51.285333-116.736-51.285333-81.109333 0-146.858667 64-146.858667 142.890666 0 78.933333 65.706667 142.848 146.858667 142.848 11.733333 0 32.213333 0.853333 61.610667 2.56l-99.413334 82.474667c-121.941333-19.370667-208.213333-126.506667-198.357333-246.272 9.856-119.808 112.554667-212.224 236.117333-212.48v0.085333z"
    fill="#00CDD8"></path>
  <path
    d="M694.016 410.112c120.618667-49.792 259.882667 4.949333 311.04 122.282667 51.2 117.333333-5.077333 252.8-125.696 302.592-16.853333 6.954667-41.941333 17.066667-69.376 17.322666-79.274667 0.64-268.416 0.981333-567.594667 1.024H195.498667c145.664-135.509333 291.114667-271.232 436.394666-407.125333 20.053333-18.773333 45.226667-29.141333 62.122667-36.096z m46.037333 86.101333c-10.197333 4.224-25.344 10.453333-37.418666 21.76-33.194667 31.146667-120.874667 112.981333-263.210667 245.589334h58.709333c162.901333 0 266.88-0.256 311.893334-0.597334 16.554667-0.170667 31.701333-6.272 41.856-10.496 72.746667-30.08 106.666667-111.786667 75.776-182.528-30.890667-70.741333-114.901333-103.765333-187.605334-73.728z"
    fill="#00A2FF"></path>
</svg>
