<svg viewBox="0 0 1024 1024" xmlns="http://www.w3.org/2000/svg" width="128" height="128">
  <path
    d="M853.333333 810.666667h-225.706666l54.613333-77.397334 164.693333-50.432c29.866667-9.386667 49.92-37.205333 49.92-68.394666V367.317333c0-31.189333-20.053333-59.008-49.493333-68.394666L682.666667 248.490667 628.053333 171.093333H853.333333c94.293333 0 170.666667 76.544 170.666667 171.008v297.984A170.666667 170.666667 0 0 1 853.333333 810.666667zM341.333333 450.261333h341.333334v76.970667H341.333333v-76.970667zM177.066667 298.496c-29.866667 9.386667-49.92 37.205333-49.493334 68.394667v247.552c0 31.189333 20.053333 59.008 49.493334 68.394666l164.693333 50.432L396.373333 810.666667H170.666667c-94.293333 0-170.666667-76.544-170.666667-171.008V341.674667A170.794667 170.794667 0 0 1 170.666667 170.666667h225.706666L341.76 248.064 177.066667 298.496z"
    fill="#FF6A00" p-id="4208"></path>
</svg>
