<svg viewBox="0 0 1024 1024" version="1.1" xmlns="http://www.w3.org/2000/svg" width="18" height="18">
  <path
    d="M797.866667 226.133333c-4.266667-4.266667-8.533333-8.533333-12.8-8.533333-4.266667-4.266667-12.8-4.266667-17.066667-4.266667h-192c-25.6 0-42.666667 17.066667-42.666667 42.666667s17.066667 42.666667 42.666667 42.666667h89.6L512 452.266667c-17.066667 17.066667-17.066667 42.666667 0 59.733333 8.533333 8.533333 21.333333 12.8 29.866667 12.8s21.333333-4.266667 29.866666-12.8L725.333333 358.4v102.4c0 25.6 17.066667 42.666667 42.666667 42.666667s42.666667-17.066667 42.666667-42.666667V256c0-4.266667 0-8.533333-4.266667-17.066667 0-4.266667-4.266667-8.533333-8.533333-12.8z"
    fill="currentColor"></path>
  <path
    d="M832 59.733333h-640c-72.533333 0-132.266667 59.733333-132.266667 132.266667v635.733333c0 72.533333 59.733333 132.266667 132.266667 132.266667h635.733333c72.533333 0 132.266667-59.733333 132.266667-132.266667V192c4.266667-72.533333-55.466667-132.266667-128-132.266667zM418.133333 878.933333H192c-25.6 0-46.933333-21.333333-46.933333-46.933333v-226.133333h213.333333c34.133333 0 59.733333 25.6 59.733333 59.733333v213.333333z m460.8-46.933333c0 25.6-21.333333 46.933333-46.933333 46.933333h-328.533333v-213.333333c0-81.066667-64-145.066667-145.066667-145.066667h-213.333333V192c0-25.6 21.333333-46.933333 46.933333-46.933333h635.733333c25.6 0 46.933333 21.333333 46.933334 46.933333v640z"
    fill="currentColor"></path>
</svg>
