<svg viewBox="0 0 1024 1024" version="1.1" xmlns="http://www.w3.org/2000/svg" width="16" height="16">
  <path
    d="M452.266667 512L298.666667 665.6v-102.4c0-25.6-17.066667-42.666667-42.666667-42.666667s-42.666667 17.066667-42.666667 42.666667V768c0 4.266667 0 8.533333 4.266667 17.066667 0 4.266667 4.266667 8.533333 8.533333 12.8 4.266667 4.266667 8.533333 8.533333 12.8 8.533333 4.266667 4.266667 12.8 4.266667 17.066667 4.266667h192c25.6 0 42.666667-17.066667 42.666667-42.666667s-17.066667-42.666667-42.666667-42.666667H358.4l153.6-153.6c17.066667-17.066667 17.066667-42.666667 0-59.733333s-42.666667-17.066667-59.733333 0z"
    fill="currentColor"></path>
  <path
    d="M832 59.733333h-640c-72.533333 0-132.266667 59.733333-132.266667 132.266667v635.733333c0 72.533333 59.733333 132.266667 132.266667 132.266667h635.733333c72.533333 0 132.266667-59.733333 132.266667-132.266667V192c4.266667-72.533333-55.466667-132.266667-128-132.266667z m46.933333 772.266667c0 25.6-21.333333 46.933333-46.933333 46.933333h-640c-25.6 0-46.933333-21.333333-46.933333-46.933333v-640c0-25.6 21.333333-46.933333 46.933333-46.933333h328.533333v213.333333c0 81.066667 64 145.066667 145.066667 145.066667h213.333333v328.533333z m0-413.866667h-213.333333c-34.133333 0-59.733333-25.6-59.733333-59.733333v-213.333333h226.133333c25.6 0 46.933333 21.333333 46.933333 46.933333v226.133333z"
    fill="currentColor"></path>
</svg>
