<svg xmlns:xlink="http://www.w3.org/1999/xlink" fill="currentColor" width="18" height="18">
  <defs>
    <symbol id="icon-outdent-Navigation" viewBox="0 0 1024 1024">
      <path
        d="M828.8256 193.28a30.72 30.72 0 1 1 0 61.44H195.2256a30.72 30.72 0 1 1 0-61.44h633.6zM828.8256 481.28a30.72 30.72 0 1 1 0 61.44H425.6256a30.72 30.72 0 1 1 0-61.44h403.1488zM859.5456 800a30.72 30.72 0 0 0-30.72-30.72H195.2256a30.72 30.72 0 0 0 0 61.44h633.6a30.72 30.72 0 0 0 30.72-30.72zM285.4912 420.352a28.8256 28.8256 0 0 1 44.0832 24.4224v136.6016a28.7744 28.7744 0 0 1-44.032 24.4224l-109.0048-68.3008a28.8256 28.8256 0 0 1 0-48.7936L285.4912 420.352z">
      </path>
    </symbol>
  </defs>
  <use xlink:href="#icon-outdent-Navigation" fill="currentColor"></use>
</svg>
