<?xml version="1.0" encoding="UTF-8"?>
<svg height="100pt" width="100pt" xmlns="http://www.w3.org/2000/svg" viewBox="0 0 1188 1193.34">
  <defs>
    <style>
      .cls-1 {
        fill: #fff;
        fill-rule: evenodd;
      }
    </style>
  </defs>
  <ellipse class="cls-2" cx="594" cy="596.67" rx="594" ry="596.67" />
  <path class="cls-1"
    d="m317.72,828.83l-101.71,228.13c-10.01-7.9-20.24-16.6-30.55-26.18-30.47-28.31-54.04-57.27-72.19-83.58,42.9-94.18,85.81-188.35,128.71-282.53,35.19-80.45,89.32-74.24,133.65-13.23,10.02-22.94,26.28-64.25,48.77-68.84,22.95-4.86,47,26.99,60.82,45.09l31.18,40.49c14.93,19.17,29.19,19.71,40.54-4.05l131.42-255.13c30.52-59.39,77.75-59.66,112.28-4.86,103.11,162.78,206.22,325.56,309.33,488.34-13.49,23.68-30.9,50.49-53.25,78.36-20.5,25.55-41,46.79-59.7,64.15-96.35-148.79-171.89-264.28-200.17-307.94-4.48-6.91-15.57-24.13-29.67-23.53-10.99.46-21.23,12.03-31.14,32.97l-132.09,256.75c-26.95,52.11-63.27,51.3-97.12,8.64l-108.32-141.16c-8.73-11.38-16.53-23.51-22.53-36.55-7.83-17.02-24.63-25.53-37.34-22.07-10.38,2.82-18.36,13.72-20.93,26.73Z" />
</svg>
